<svg xmlns:xlink="http://www.w3.org/1999/xlink" xmlns="http://www.w3.org/2000/svg" width="361" height="317" viewBox="0 0 361 317" fill="none"><path d="M181.309 267.617c7.252-9.048 15.067-17.806 22.056-27.058 2.402-3.196 5.599-5.196 7.748-8.483 2.228-3.405 6.321-5.953 9.372-8.64 4.991-4.424 10.056-8.764 14.998-13.252 2.002-1.811 3.77-1.846 5.786-3.5 1.093-.879 2.026-2.06 3.171-2.854 1.313-.92 2.251-.705 3.518-1.374 1.138-.612 2.16-2.071 3.188-2.923 1.239-1.004 2.101-.895 3.086-1.45 2.635-1.481 4.94-3.159 7.623-4.599 17.49-9.452 31.966-25.205 46.901-38.407 4.993-4.402 9.379-8.551 13.275-13.739 3.898-5.167 7.356-10.769 10.881-16.107 7.131-10.773 8.748-24.464 7.68-37.548-.186-2.236-.462-4.465-.357-6.703.094-1.562.484-2 .816-3.401.465-1.953.215-4.41.361-6.425.364-5.863-.256-11.418-2.97-16.8-1.476-2.916-3.816-5.423-5.37-8.199-1.819-3.249-2.908-6.896-5.308-9.87-4.433-5.554-9.049-10.889-15.259-14.357-2.539-1.41-4.971-2.873-7.373-4.52-2.189-1.506-3.897-1.814-6.178-2.818-3.282-1.438-6.525-2.406-9.919-3.564-6.439-2.188-11.924-3.42-18.54-4.22-9.128-1.085-18.66.25-27.746 1.03-10.332.883-20.822 3.378-30.561 6.802-13.511 4.73-25.539 13.793-36.193 23.193-.941.822-2.475 1.783-3.221 2.79-.766 1.033-.697 1.86-1.308 2.88-2.305 3.817-5.933 6.844-8.441 10.656-2.805 4.288-5.968 8.042-8.509 12.532-4.343 7.635-7.647 15.882-11.94 23.58-2.595 4.653-4.982 7.487-9.059 11.047-2.822 2.464-4.36 5.272-6.911 7.759-4.318 4.166-9.254 7.64-14.749 9.787-4.257 1.66-7.898 4.531-11.787 6.837-3.335 1.967-7.262 2.474-10.354 4.668-2.414 1.71-4.849 2.634-7.142 4.716-2.46 2.232-5.175 3.021-7.604 5.093-4.42 3.746-8.561 8.685-13.52 11.62-1.646.971-3.123 1.544-4.589 2.792-1.384 1.151-2.449 2.366-3.972 3.191-.967.509-1.951.545-3.064 1.449-1.409 1.131-2.693 2.409-4.05 3.603-3.344 2.936-5.827 6.25-8.762 9.512a113.504 113.504 0 00-11.511 15.259c-6.024 9.532-9.362 22.488-9.017 33.628.308 10.153 1.208 20.954 3.994 30.698.884 3.079 1.032 6.737 2.481 9.589 1.718 3.392 3.651 6.135 6.206 9.075 5.032 5.751 9.887 12.867 16 17.334 2.508 1.841 4.747 3.951 7.36 5.692 3.276 2.182 6.547 3.485 10.03 5.177 5.327 2.573 11.168 5.915 17.169 6.878a241.454 241.454 0 0115.937 3.131c9.029 2.039 19.368.164 28.264-1.816 2.906-.647 6.463-2.903 9.078-4.359 2.72-1.533 5.459-3.653 7.99-5.575 1.349-1.036 2.528-1.157 3.942-1.95 1.262-.736 2.089-1.84 3.422-2.537 2.859-1.477 4.926-3.045 7.429-5.303 2.212-1.986 4.105-2.144 6.247-3.898 2.282-1.947 15.902-11.549 19.275-15.749z" fill="#61A876"/></svg>