<svg xmlns:xlink="http://www.w3.org/1999/xlink" xmlns="http://www.w3.org/2000/svg" width="253" height="291" viewBox="0 0 253 291" fill="none"><path d="M3.35 81.424c-.538 1.792-.06 3.744-.21 5.631-.208 2.528-.717 5.184-1.255 7.648C1.107 98.383 0 101.23 0 105.038c0 3.712.15 7.647.957 11.295.838 3.808 2.393 7.136 3.26 10.879 3.321 14.399-.149 29.15 2.334 43.645.359 2.048.479 4.127.718 6.207.329 2.848 1.017 5.504 1.376 8.288.24 1.919.718 3.167 1.556 4.863 1.196 2.4 1.914 4.992 3.08 7.392.898 1.855 2.214 3.423 3.261 5.183 2.513 4.32 5.235 8.288 7.987 12.383 2.543 3.776 5.564 6.912 8.136 10.559 2.633 3.776 5.923 6.944 8.974 10.368 1.616 1.823 3.62 2.943 5.295 4.863 2.363 2.72 4.936 5.12 7.628 7.456 5.803 5.023 11.427 10.367 17.35 15.23 2.393 1.952 4.965 3.456 7.508 5.152 1.167.768 2.483 1.024 3.59 1.888 1.525 1.152 2.692 1.984 4.487 2.784 7.388 3.199 14.777 7.391 22.494 9.407 5.415 1.44 10.56 3.616 16.094 4.095 1.705.16 2.931.896 4.606 1.216 1.646.32 3.411.16 5.056.416 4.008.576 8.196-.128 12.175.416.957.128 1.615.704 2.482.96 1.197.288 2.663.032 3.799.096 1.915.064 4.039.032 6.013-.128 3.949-.288 7.957-2.656 11.756-3.903 7.568-2.432 14.657-5.696 20.55-11.456 2.244-2.175 3.351-4.223 4.996-6.815.179-.32.748-.192 1.077-.672.239-.416.209-1.024.478-1.408.688-1.024 1.406-1.44 2.034-2.624 1.317-2.527 2.364-3.935 4.488-5.759 1.555-1.344 3.2-2.432 4.816-3.52 4.337-2.88 9.033-5.919 13.161-9.183 13.043-10.335 18.607-28.702 24.619-43.965.898-2.239.778-4.287 1.526-6.495.807-2.368.867-4.672 1.735-6.944 1.884-5.087 1.286-11.199 1.376-16.606.059-3.456.538-6.88-.419-10.207a16.612 16.612 0 00-.838-2.336c-.628-1.472-.867-2.656-1.256-4.192-.359-1.472-1.286-2.464-1.825-3.808-.598-1.471-.389-2.975-.658-4.511-.419-2.528-1.017-5.248-1.107-7.872-.119-4.063 1.017-8.223 1.646-12.159.448-2.911.149-5.919.508-8.863.449-3.712 1.256-7.391 1.675-11.135.569-4.896 1.855-9.695 2.124-14.59.329-6.016-1.675-13.088-5.474-17.76-1.077-1.311-2.602-2.207-3.709-3.487-1.436-1.632-2.782-3.52-4.039-5.312-2.841-4.095-6.581-7.36-9.662-11.327-2.602-3.36-4.935-6.111-8.136-8.831-3.38-2.912-7.06-5.408-10.679-8.031-1.795-1.312-3.5-2.944-5.355-4.096-1.764-1.088-3.828-1.44-5.593-2.496-1.406-.864-2.423-2.08-3.889-2.848-1.466-.736-3.111-1.12-4.547-1.92-1.286-.735-2.214-1.887-3.47-2.655-1.585-.96-3.59-1.568-5.295-2.272-3.29-1.408-5.922-3.648-9.213-5.088-2.782-1.216-5.594-2.431-8.376-3.68-4.995-2.24-10.17-3.391-15.136-5.695-4.397-2.048-9.422-2.688-14.059-3.872-5.325-1.343-9.991-1.76-15.525-1.471-7 .351-13.341 1.28-20.072 3.52C94.526 5.59 88.543 6.71 82.651 8.79c-6.252 2.176-13.431 6.527-17.68 11.967-4.875 6.24-9.452 12.735-14.747 18.686-3.23 3.616-6.73 6.88-10.02 10.431-2.394 2.56-4.218 4.544-7.15 6.496-3.65 2.464-7.269 4.928-10.918 7.391-1.885 1.28-3.859 1.696-5.474 2.944-1.286.992-2.932 1.76-4.427 2.624-2.154 1.216-4.487 1.952-6.432 3.488-1.795 1.408-1.825 3.2-3.14 4.991-.24 0-.51-.064.687 3.616z" fill="#B8AFFF"/></svg>